HIERARCHY
ROOT Hips
{
	OFFSET -0.001795 -0.223333 0.028219
	CHANNELS 6 Xposition Yposition Zposition Zrotation Yrotation Xrotation 
	JOINT LeftUpLeg
	{
		OFFSET 0.069520 -0.091406 -0.006815
		CHANNELS 3 Zrotation Yrotation Xrotation
		JOINT LeftLeg
		{
			OFFSET 0.034277 -0.375199 -0.004496
			CHANNELS 3 Zrotation Yrotation Xrotation
			JOINT LeftFoot
			{
				OFFSET -0.013596 -0.397961 -0.043693
				CHANNELS 3 Zrotation Yrotation Xrotation
				JOINT LeftToe
				{
					OFFSET 0.026358 -0.055791 0.119288
					CHANNELS 3 Zrotation Yrotation Xrotation
					End Site
					{
						OFFSET 0.000000 0.000000 0.000000
					}
				}
			}
		}
	}
	JOINT RightUpLeg
	{
		OFFSET -0.067670 -0.090522 -0.004320
		CHANNELS 3 Zrotation Yrotation Xrotation
		JOINT RightLeg
		{
			OFFSET -0.038290 -0.382569 -0.008850
			CHANNELS 3 Zrotation Yrotation Xrotation
			JOINT RightFoot
			{
				OFFSET 0.015774 -0.398415 -0.042312
				CHANNELS 3 Zrotation Yrotation Xrotation
				JOINT RightToe
				{
					OFFSET -0.025372 -0.048144 0.123348
					CHANNELS 3 Zrotation Yrotation Xrotation
					End Site
					{
						OFFSET 0.000000 0.000000 0.000000
					}
				}
			}
		}
	}
	JOINT Spine
	{
		OFFSET -0.002533 0.108963 -0.026696
		CHANNELS 3 Zrotation Yrotation Xrotation
		JOINT Spine1
		{
			OFFSET 0.005487 0.135180 0.001092
			CHANNELS 3 Zrotation Yrotation Xrotation
			JOINT Spine2
			{
				OFFSET 0.001457 0.052922 0.025425
				CHANNELS 3 Zrotation Yrotation Xrotation
				JOINT Neck
				{
					OFFSET -0.002778 0.213870 -0.042857
					CHANNELS 3 Zrotation Yrotation Xrotation
					JOINT Head
					{
						OFFSET 0.005152 0.064970 0.051349
						CHANNELS 3 Zrotation Yrotation Xrotation
						End Site
						{
							OFFSET 0.000000 0.000000 0.000000
						}
					}
				}
				JOINT LeftShoulder
				{
					OFFSET 0.078845 0.121749 -0.034090
					CHANNELS 3 Zrotation Yrotation Xrotation
					JOINT LeftArm
					{
						OFFSET 0.090977 0.030469 -0.008868
						CHANNELS 3 Zrotation Yrotation Xrotation
						JOINT LeftForeArm
						{
							OFFSET 0.259612 -0.012772 -0.027456
							CHANNELS 3 Zrotation Yrotation Xrotation
							JOINT LeftHand
							{
								OFFSET 0.249234 0.008986 -0.001171
								CHANNELS 3 Zrotation Yrotation Xrotation
								End Site
								{
									OFFSET 0.000000 0.000000 0.000000
								}
							}
						}
					}
				}
				JOINT RightShoulder
				{
					OFFSET -0.081759 0.118833 -0.038615
					CHANNELS 3 Zrotation Yrotation Xrotation
					JOINT RightArm
					{
						OFFSET -0.096012 0.032551 -0.009143
						CHANNELS 3 Zrotation Yrotation Xrotation
						JOINT RightForeArm
						{
							OFFSET -0.253742 -0.013329 -0.021401
							CHANNELS 3 Zrotation Yrotation Xrotation
							JOINT RightHand
							{
								OFFSET -0.255298 0.007772 -0.005559
								CHANNELS 3 Zrotation Yrotation Xrotation
								End Site
								{
									OFFSET 0.000000 0.000000 0.000000
								}
							}
						}
					}
				}
			}
		}
	}
}
MOTION
Frames: 7
Frame Time: 0.050000
0.000000 0.795396 0.000000 2.572755 -20.289157 1.804970 14.569078 7.743012 -50.067997 -9.963677 5.386001 33.960598 8.119303 15.452255 8.672311 0.000000 0.000000 0.000000 -12.450861 3.769594 -43.508961 29.445573 -9.985236 54.637267 -12.858002 -37.090168 -13.924176 0.000000 0.000000 0.000000 6.552850 0.317748 61.574743 -1.211475 0.926190 9.396839 -7.365965 -1.483579 -0.383288 6.644102 -5.711412 3.149361 0.000000 0.000000 0.000000 -35.479320 -39.596010 28.142791 -28.588599 -22.192682 1.296520 19.297398 -29.452488 -3.901363 0.000000 0.000000 0.000000 33.773492 35.144508 21.458103 19.881834 23.278801 1.478521 -6.344924 18.325298 -0.310282 0.000000 0.000000 0.000000 
0.004536 0.787967 0.026151 0.397879 -21.031400 3.143318 16.550868 8.958147 -49.417083 -10.253050 5.650010 34.234792 5.169992 10.846461 10.478668 0.000000 0.000000 0.000000 -12.978712 3.962896 -44.778960 32.125710 -12.063127 57.886277 -14.010583 -38.178834 -8.182981 0.000000 0.000000 0.000000 5.572691 1.270830 62.784547 0.139357 0.150340 10.123446 -6.883750 0.021546 0.012474 7.198474 -5.760011 0.415966 0.000000 0.000000 0.000000 -35.660361 -38.741701 26.987265 -25.902923 -21.353813 0.969873 20.667382 -33.736322 -4.921030 0.000000 0.000000 0.000000 29.842021 35.728433 21.322099 21.469446 24.771618 1.731766 -7.003563 21.369895 -0.504196 0.000000 0.000000 0.000000 
0.010995 0.786311 0.051646 0.106009 -21.823296 4.685964 14.356371 8.565327 -51.919500 -7.512961 5.468961 41.418706 5.722452 11.404373 5.540312 0.000000 0.000000 0.000000 -14.900000 3.808090 -46.538605 34.210538 -13.575387 58.710285 -16.748479 -42.758762 -3.359199 0.000000 0.000000 0.000000 3.817262 2.731050 63.353326 0.409468 -0.064421 7.451231 -6.846246 0.691884 3.415946 6.225140 -5.337652 2.014240 0.000000 0.000000 0.000000 -32.644491 -39.988501 26.925918 -25.196429 -23.388213 1.080554 22.037866 -30.411055 -4.745123 0.000000 0.000000 0.000000 30.280386 37.352739 22.929727 18.823135 26.681312 1.375585 -6.148024 19.910087 -0.327230 0.000000 0.000000 0.000000 
0.018731 0.792516 0.075400 -1.204157 -22.061543 6.072767 13.814192 8.309804 -51.996585 -5.729581 4.835939 43.445239 5.685575 11.146934 2.819576 0.000000 0.000000 0.000000 -13.476763 4.303562 -46.526485 33.340412 -12.743333 57.867525 -17.345515 -43.116478 -1.705894 0.000000 0.000000 0.000000 3.110516 3.267188 63.439032 0.859983 -0.234001 11.682164 -7.356923 0.656576 0.701698 6.427131 -5.174797 0.557634 0.000000 0.000000 0.000000 -30.963654 -42.574309 28.092522 -24.963098 -22.966245 1.156019 24.921619 -29.849387 -5.413007 0.000000 0.000000 0.000000 28.644373 40.282172 24.897236 18.885719 28.097259 1.598675 -8.952663 19.322484 -0.717170 0.000000 0.000000 0.000000 
0.027533 0.798039 0.098012 -1.948208 -22.079448 7.954692 12.896006 7.986699 -52.796614 -4.919363 4.908382 46.958841 6.612964 12.632453 -1.749553 0.000000 0.000000 0.000000 -14.388193 4.022494 -46.068821 33.944144 -12.750839 56.117411 -18.236323 -44.128265 0.006997 0.000000 0.000000 0.000000 2.133133 3.846261 62.777019 -0.581053 0.608483 10.711739 -6.154576 0.993189 1.921308 5.411080 -4.456726 1.094216 0.000000 0.000000 0.000000 -30.595156 -43.689170 29.116818 -23.143124 -21.920927 0.697744 25.759689 -30.354401 -5.725821 0.000000 0.000000 0.000000 28.389655 41.055007 25.428504 17.772808 29.340220 1.459620 -9.595858 20.364329 -0.861969 0.000000 0.000000 0.000000 
0.037170 0.804358 0.119737 -2.871268 -22.252400 8.831435 12.766937 7.774035 -52.164933 -5.145402 5.263165 47.715912 6.967289 13.342516 -3.057733 0.000000 0.000000 0.000000 -15.009238 3.621887 -44.102347 34.292249 -12.387583 54.262211 -18.056652 -43.949346 -0.510174 0.000000 0.000000 0.000000 0.755845 4.713141 62.286820 -0.292686 0.460080 11.245028 -6.719720 2.534928 1.613098 6.042262 -4.806726 0.092182 0.000000 0.000000 0.000000 -28.492777 -44.544878 28.208945 -25.194564 -20.625311 0.775918 28.575597 -32.574294 -7.027451 0.000000 0.000000 0.000000 27.287601 41.938692 26.403887 17.247990 31.807174 1.510630 -12.035573 21.293685 -1.318358 0.000000 0.000000 0.000000 
0.046694 0.812800 0.140989 -3.715980 -21.195705 10.066757 12.059093 6.948855 -51.892321 -5.571489 5.359533 47.344596 7.831930 15.206162 -3.078184 0.000000 0.000000 0.000000 -14.660748 3.478977 -43.430090 33.694874 -12.130154 53.217281 -18.425941 -43.191157 2.357513 0.000000 0.000000 0.000000 -0.153987 4.786698 61.410541 -0.874300 0.802061 11.430053 -6.457463 3.297499 -0.124323 5.948144 -5.078332 2.291411 0.000000 0.000000 0.000000 -30.176509 -42.776695 27.279227 -25.070562 -18.593989 0.543120 26.131291 -35.854598 -6.976109 0.000000 0.000000 0.000000 29.296949 41.982316 27.861966 16.051452 32.596404 1.304368 -12.149883 23.795163 -1.510972 0.000000 0.000000 0.000000 
